<svg xmlns="http://www.w3.org/2000/svg" viewBox="0 0 1200 820" font-family="'Inter', 'SF Pro Display', -apple-system, BlinkMacSystemFont, 'Segoe UI', sans-serif">
  <defs>
    <marker id="arr" viewBox="0 0 10 7" refX="9" refY="3.5" markerWidth="8" markerHeight="6" orient="auto-start-auto">
      <path d="M 0 0 L 10 3.5 L 0 7 z" fill="#94a3b8"/>
    </marker>
    <marker id="arr-blue" viewBox="0 0 10 7" refX="9" refY="3.5" markerWidth="8" markerHeight="6" orient="auto-start-auto">
      <path d="M 0 0 L 10 3.5 L 0 7 z" fill="#3b82f6"/>
    </marker>
    <marker id="arr-green" viewBox="0 0 10 7" refX="9" refY="3.5" markerWidth="8" markerHeight="6" orient="auto-start-auto">
      <path d="M 0 0 L 10 3.5 L 0 7 z" fill="#10b981"/>
    </marker>
    <marker id="arr-amber" viewBox="0 0 10 7" refX="9" refY="3.5" markerWidth="8" markerHeight="6" orient="auto-start-auto">
      <path d="M 0 0 L 10 3.5 L 0 7 z" fill="#f59e0b"/>
    </marker>
    <filter id="sh" x="-2%" y="-2%" width="104%" height="108%">
      <feDropShadow dx="0" dy="1" stdDeviation="2.5" flood-color="#0f172a" flood-opacity="0.08"/>
    </filter>
    <pattern id="grid" width="20" height="20" patternUnits="userSpaceOnUse">
      <path d="M 20 0 L 0 0 0 20" fill="none" stroke="#e2e8f0" stroke-width="0.3"/>
    </pattern>
  </defs>

  <!-- Background -->
  <rect width="1200" height="820" fill="#f1f5f9"/>
  <rect width="1200" height="820" fill="url(#grid)" opacity="0.5"/>

  <!-- Title -->
  <rect x="0" y="0" width="1200" height="46" fill="#0f172a"/>
  <text x="28" y="30" font-size="16" font-weight="800" fill="#f8fafc" letter-spacing="1.5">YEOMAN</text>
  <text x="126" y="30" font-size="12" fill="#94a3b8">Architecture v4</text>
  <text x="1172" y="30" text-anchor="end" font-size="9" fill="#64748b">Mar 2026</text>

  <!-- ════════════════════════════════════════════════════════════ -->
  <!--  GATEWAY PROCESS                                            -->
  <!-- ════════════════════════════════════════════════════════════ -->

  <rect x="14" y="56" width="780" height="350" rx="12" fill="none" stroke="#3b82f6" stroke-width="1.8" stroke-dasharray="8,4" opacity="0.5"/>
  <rect x="22" y="52" width="200" height="16" rx="4" fill="#f1f5f9"/>
  <text x="30" y="63" font-size="9" font-weight="700" fill="#3b82f6" letter-spacing="0.5">GATEWAY PROCESS (Python)</text>

  <!-- Channels -->
  <g transform="translate(28, 76)">
    <rect width="120" height="150" rx="8" fill="#ffffff" stroke="#3b82f6" stroke-width="1.2" filter="url(#sh)"/>
    <rect width="120" height="22" rx="8" fill="#2563eb"/>
    <rect x="0" y="11" width="120" height="11" fill="#2563eb"/>
    <text x="60" y="17" text-anchor="middle" font-size="9" font-weight="700" fill="#ffffff">CHANNELS</text>
    <rect x="8" y="28" width="104" height="18" rx="4" fill="#eff6ff"/>
    <text x="60" y="40" text-anchor="middle" font-size="7.5" fill="#1e40af">Telegram</text>
    <rect x="8" y="50" width="104" height="18" rx="4" fill="#ecfdf5"/>
    <text x="60" y="62" text-anchor="middle" font-size="7.5" fill="#065f46">WhatsApp</text>
    <rect x="8" y="72" width="104" height="18" rx="4" fill="#f5f3ff"/>
    <text x="60" y="84" text-anchor="middle" font-size="7.5" fill="#5b21b6">Discord</text>
    <rect x="8" y="94" width="104" height="18" rx="4" fill="#fffbeb"/>
    <text x="60" y="106" text-anchor="middle" font-size="7.5" fill="#92400e">Feishu</text>
    <text x="60" y="130" text-anchor="middle" font-size="6.5" fill="#64748b">ChannelManager</text>
    <text x="60" y="142" text-anchor="middle" font-size="6.5" fill="#94a3b8">dedup · media enrich</text>
  </g>

  <!-- Bus -->
  <g transform="translate(162, 76)">
    <rect width="56" height="150" rx="8" fill="#ffffff" stroke="#6366f1" stroke-width="1.2" filter="url(#sh)"/>
    <rect width="56" height="22" rx="8" fill="#4f46e5"/>
    <rect x="0" y="11" width="56" height="11" fill="#4f46e5"/>
    <text x="28" y="17" text-anchor="middle" font-size="8" font-weight="700" fill="#ffffff">BUS</text>
    <rect x="6" y="28" width="44" height="20" rx="4" fill="#eff6ff"/>
    <text x="28" y="42" text-anchor="middle" font-size="7" fill="#1e40af">in</text>
    <rect x="6" y="52" width="44" height="20" rx="4" fill="#ecfdf5"/>
    <text x="28" y="66" text-anchor="middle" font-size="7" fill="#065f46">out</text>
    <rect x="6" y="76" width="44" height="20" rx="4" fill="#fffbeb"/>
    <text x="28" y="90" text-anchor="middle" font-size="7" fill="#92400e">react</text>
    <text x="28" y="118" text-anchor="middle" font-size="6" fill="#6366f1">async</text>
    <text x="28" y="130" text-anchor="middle" font-size="6" fill="#6366f1">queues</text>
  </g>

  <!-- Arrow: Channels ↔ Bus -->
  <line x1="148" y1="140" x2="160" y2="140" stroke="#3b82f6" stroke-width="1.5" marker-end="url(#arr-blue)"/>

  <!-- Pipeline -->
  <g transform="translate(232, 76)">
    <rect width="220" height="310" rx="10" fill="#ffffff" stroke="#4f46e5" stroke-width="1.8" filter="url(#sh)"/>
    <rect width="220" height="24" rx="10" fill="#4f46e5"/>
    <rect x="0" y="12" width="220" height="12" fill="#4f46e5"/>
    <text x="110" y="18" text-anchor="middle" font-size="9" font-weight="800" fill="#ffffff">MIDDLEWARE PIPELINE</text>

    <!-- Stages as compact list -->
    <g transform="translate(8, 30)">
      <rect width="204" height="16" rx="3" fill="#f8fafc" stroke="#e2e8f0" stroke-width="0.4"/>
      <text x="5" y="12" font-size="6.5" fill="#94a3b8" font-weight="700">01-02</text>
      <text x="38" y="12" font-size="6.5" fill="#475569">Normalize · Dedup</text>

      <rect y="20" width="204" height="16" rx="3" fill="#f0fdf4" stroke="#bbf7d0" stroke-width="0.4"/>
      <text x="5" y="32" font-size="6.5" fill="#10b981" font-weight="700">03-04</text>
      <text x="38" y="32" font-size="6.5" fill="#475569">Archive · Reply context</text>

      <rect y="40" width="204" height="16" rx="3" fill="#faf5ff" stroke="#e9d5ff" stroke-width="0.4"/>
      <text x="5" y="52" font-size="6.5" fill="#8b5cf6" font-weight="700">05-06</text>
      <text x="38" y="52" font-size="6.5" fill="#475569">Admin · Policy</text>
      <text x="198" y="52" text-anchor="end" font-size="6" fill="#8b5cf6" font-style="italic">PolicyPort</text>

      <rect y="60" width="204" height="16" rx="3" fill="#f8fafc" stroke="#e2e8f0" stroke-width="0.4"/>
      <text x="5" y="72" font-size="6.5" fill="#94a3b8" font-weight="700">07-10</text>
      <text x="38" y="72" font-size="6.5" fill="#475569">Idea capture · Access · Notify · No-reply</text>

      <rect y="80" width="204" height="16" rx="3" fill="#fef2f2" stroke="#fecaca" stroke-width="0.5"/>
      <text x="5" y="92" font-size="6.5" fill="#ef4444" font-weight="700">11</text>
      <text x="20" y="92" font-size="6.5" fill="#991b1b">Input security</text>
      <text x="198" y="92" text-anchor="end" font-size="6" fill="#ef4444" font-style="italic">SecurityPort</text>

      <!-- Stage 12 expanded -->
      <rect y="100" width="204" height="44" rx="5" fill="#eff6ff" stroke="#3b82f6" stroke-width="0.8"/>
      <text x="5" y="112" font-size="6.5" fill="#2563eb" font-weight="700">12</text>
      <text x="20" y="112" font-size="6.5" fill="#1e40af" font-weight="600">LLM Response Generation</text>
      <text x="198" y="112" text-anchor="end" font-size="6" fill="#3b82f6" font-style="italic">ResponderPort</text>
      <rect x="4" y="118" width="62" height="12" rx="2" fill="#dbeafe"/>
      <text x="35" y="127" text-anchor="middle" font-size="5.5" fill="#1e40af">Context</text>
      <rect x="70" y="118" width="62" height="12" rx="2" fill="#dbeafe"/>
      <text x="101" y="127" text-anchor="middle" font-size="5.5" fill="#1e40af">Agent Loop</text>
      <rect x="136" y="118" width="62" height="12" rx="2" fill="#dbeafe"/>
      <text x="167" y="127" text-anchor="middle" font-size="5.5" fill="#1e40af">Tools</text>
      <text x="102" y="140" text-anchor="middle" font-size="5.5" fill="#64748b">memory recall · tools · max 20 turns</text>

      <rect y="148" width="204" height="16" rx="3" fill="#f8fafc" stroke="#e2e8f0" stroke-width="0.4"/>
      <text x="5" y="160" font-size="6.5" fill="#94a3b8" font-weight="700">13</text>
      <text x="20" y="160" font-size="6.5" fill="#475569">Outbound (TTS · output security)</text>
    </g>

    <!-- Intents -->
    <line x1="8" y1="204" x2="212" y2="204" stroke="#c7d2fe" stroke-width="0.6" stroke-dasharray="3,2"/>
    <rect x="8" y="210" width="204" height="32" rx="5" fill="#eef2ff" stroke="#6366f1" stroke-width="0.6"/>
    <text x="110" y="224" text-anchor="middle" font-size="7.5" fill="#4338ca" font-weight="700">OrchestratorIntent[]</text>
    <text x="110" y="236" text-anchor="middle" font-size="6" fill="#64748b">Send · React · Type · Memory · Metric</text>

    <text x="110" y="260" text-anchor="middle" font-size="6.5" fill="#6366f1">13 stages · async · intent-based</text>
    <text x="110" y="274" text-anchor="middle" font-size="6.5" fill="#94a3b8">ctx.halted short-circuits</text>
    <text x="110" y="288" text-anchor="middle" font-size="6.5" fill="#94a3b8">core/pipeline.py</text>
  </g>

  <!-- Arrow: Bus → Pipeline -->
  <line x1="218" y1="130" x2="230" y2="130" stroke="#3b82f6" stroke-width="1.5" marker-end="url(#arr-blue)"/>
  <!-- Arrow: Pipeline → Bus (intents) -->
  <path d="M 232 340 L 224 340 L 224 180 L 220 180" stroke="#10b981" stroke-width="1.2" fill="none" marker-end="url(#arr-green)"/>

  <!-- Services column -->
  <g transform="translate(468, 76)">
    <!-- Policy -->
    <rect width="158" height="56" rx="8" fill="#ffffff" stroke="#8b5cf6" stroke-width="1" filter="url(#sh)"/>
    <rect width="158" height="18" rx="8" fill="#7c3aed"/>
    <rect x="0" y="9" width="158" height="9" fill="#7c3aed"/>
    <text x="79" y="14" text-anchor="middle" font-size="8" font-weight="700" fill="#ffffff">POLICY ENGINE</text>
    <text x="10" y="32" font-size="6.5" fill="#334155">evaluate() → PolicyDecision</text>
    <text x="10" y="44" font-size="6.5" fill="#64748b">rules · O(1) · hot-reload</text>

    <!-- Security -->
    <rect y="64" width="158" height="48" rx="8" fill="#ffffff" stroke="#ef4444" stroke-width="1" filter="url(#sh)"/>
    <rect y="64" width="158" height="18" rx="8" fill="#ef4444"/>
    <rect x="0" y="73" width="158" height="9" fill="#ef4444"/>
    <text x="79" y="78" text-anchor="middle" font-size="8" font-weight="700" fill="#ffffff">SECURITY</text>
    <text x="10" y="94" font-size="6.5" fill="#334155">3-stage: input → tool → output</text>
    <text x="10" y="106" font-size="6.5" fill="#64748b">regex + LLM classifier</text>

    <!-- Memory -->
    <rect y="120" width="158" height="56" rx="8" fill="#ffffff" stroke="#10b981" stroke-width="1" filter="url(#sh)"/>
    <rect y="120" width="158" height="18" rx="8" fill="#10b981"/>
    <rect x="0" y="129" width="158" height="9" fill="#10b981"/>
    <text x="79" y="134" text-anchor="middle" font-size="8" font-weight="700" fill="#ffffff">MEMORY</text>
    <text x="10" y="150" font-size="6.5" fill="#334155">SQLite + FTS5 + vector</text>
    <text x="10" y="162" font-size="6.5" fill="#64748b">recall · tool · capture</text>

    <!-- Session -->
    <rect y="184" width="158" height="36" rx="8" fill="#ffffff" stroke="#0ea5e9" stroke-width="1" filter="url(#sh)"/>
    <text x="79" y="202" text-anchor="middle" font-size="8" font-weight="700" fill="#0ea5e9">SESSION</text>
    <text x="10" y="214" font-size="6.5" fill="#64748b">JSONL · history · ambient window</text>
  </g>

  <!-- Dashed arrows: Pipeline → Services -->
  <line x1="452" y1="200" x2="466" y2="106" stroke="#8b5cf6" stroke-width="1" stroke-dasharray="3,2" marker-end="url(#arr-purple)"/>
  <line x1="452" y1="260" x2="466" y2="160" stroke="#ef4444" stroke-width="1" stroke-dasharray="3,2" marker-end="url(#arr-red)"/>
  <line x1="452" y1="300" x2="466" y2="220" stroke="#10b981" stroke-width="1" stroke-dasharray="3,2" marker-end="url(#arr-green)"/>

  <!-- Background Services -->
  <g transform="translate(468, 300)">
    <rect width="158" height="32" rx="8" fill="#ffffff" stroke="#cbd5e1" stroke-width="0.8" filter="url(#sh)"/>
    <text x="10" y="14" font-size="7" fill="#0f172a" font-weight="600">Cron</text>
    <text x="52" y="14" font-size="7" fill="#0f172a" font-weight="600">Heartbeat</text>
    <text x="120" y="14" font-size="7" fill="#0f172a" font-weight="600">Telemetry</text>
    <text x="79" y="26" text-anchor="middle" font-size="6" fill="#94a3b8">proactive · scheduled · metrics</text>
  </g>

  <!-- Providers + Media -->
  <g transform="translate(642, 76)">
    <rect width="140" height="256" rx="8" fill="#ffffff" stroke="#cbd5e1" stroke-width="1" filter="url(#sh)"/>
    <text x="70" y="16" text-anchor="middle" font-size="8" font-weight="700" fill="#0f172a">PROVIDERS</text>
    <text x="70" y="28" text-anchor="middle" font-size="6" fill="#94a3b8">LiteLLM · 11 providers</text>

    <rect x="6" y="34" width="60" height="14" rx="3" fill="#fef3c7"/>
    <text x="36" y="44" text-anchor="middle" font-size="6" fill="#92400e">OpenRouter</text>
    <rect x="70" y="34" width="60" height="14" rx="3" fill="#fef3c7"/>
    <text x="100" y="44" text-anchor="middle" font-size="6" fill="#92400e">AiHubMix</text>
    <rect x="6" y="52" width="60" height="14" rx="3" fill="#fff7ed"/>
    <text x="36" y="62" text-anchor="middle" font-size="6" fill="#9a3412">Anthropic</text>
    <rect x="70" y="52" width="60" height="14" rx="3" fill="#fff7ed"/>
    <text x="100" y="62" text-anchor="middle" font-size="6" fill="#9a3412">OpenAI</text>
    <rect x="6" y="70" width="60" height="14" rx="3" fill="#fff7ed"/>
    <text x="36" y="80" text-anchor="middle" font-size="6" fill="#9a3412">DeepSeek</text>
    <rect x="70" y="70" width="60" height="14" rx="3" fill="#fff7ed"/>
    <text x="100" y="80" text-anchor="middle" font-size="6" fill="#9a3412">Gemini</text>
    <rect x="6" y="88" width="60" height="14" rx="3" fill="#fff7ed"/>
    <text x="36" y="98" text-anchor="middle" font-size="6" fill="#9a3412">Groq</text>
    <rect x="70" y="88" width="60" height="14" rx="3" fill="#fff7ed"/>
    <text x="100" y="98" text-anchor="middle" font-size="6" fill="#9a3412">DashScope</text>
    <rect x="6" y="106" width="60" height="14" rx="3" fill="#fff7ed"/>
    <text x="36" y="116" text-anchor="middle" font-size="6" fill="#9a3412">Moonshot</text>
    <rect x="70" y="106" width="60" height="14" rx="3" fill="#fff7ed"/>
    <text x="100" y="116" text-anchor="middle" font-size="6" fill="#9a3412">Zhipu AI</text>
    <rect x="6" y="124" width="60" height="14" rx="3" fill="#f0fdf4"/>
    <text x="36" y="134" text-anchor="middle" font-size="6" fill="#166534">vLLM</text>
    <rect x="70" y="124" width="60" height="14" rx="3" fill="#faf5ff"/>
    <text x="100" y="134" text-anchor="middle" font-size="6" fill="#7e22ce">ElevenLabs</text>

    <line x1="6" y1="146" x2="130" y2="146" stroke="#e2e8f0" stroke-width="0.5"/>

    <!-- Media -->
    <text x="70" y="162" text-anchor="middle" font-size="8" font-weight="700" fill="#c026d3">MEDIA</text>
    <rect x="6" y="168" width="30" height="14" rx="3" fill="#fdf4ff"/>
    <text x="21" y="178" text-anchor="middle" font-size="6" fill="#86198f">ASR</text>
    <rect x="40" y="168" width="30" height="14" rx="3" fill="#fdf4ff"/>
    <text x="55" y="178" text-anchor="middle" font-size="6" fill="#86198f">TTS</text>
    <rect x="74" y="168" width="30" height="14" rx="3" fill="#fdf4ff"/>
    <text x="89" y="178" text-anchor="middle" font-size="6" fill="#86198f">Vision</text>
    <rect x="108" y="168" width="26" height="14" rx="3" fill="#fdf4ff"/>
    <text x="121" y="178" text-anchor="middle" font-size="6" fill="#86198f">Vid</text>

    <line x1="6" y1="190" x2="130" y2="190" stroke="#e2e8f0" stroke-width="0.5"/>
    <text x="70" y="204" text-anchor="middle" font-size="6.5" fill="#94a3b8">ModelRouter</text>
    <text x="70" y="216" text-anchor="middle" font-size="6.5" fill="#94a3b8">profiles · cooldown</text>
    <text x="70" y="228" text-anchor="middle" font-size="6.5" fill="#94a3b8">fallbacks</text>
  </g>

  <!-- Arrow: Services → Providers -->
  <line x1="626" y1="200" x2="640" y2="180" stroke="#94a3b8" stroke-width="1" stroke-dasharray="3,2" marker-end="url(#arr)"/>

  <!-- Baileys Bridge (external) -->
  <g transform="translate(28, 244)">
    <rect width="120" height="36" rx="6" fill="#fef3c7" stroke="#f59e0b" stroke-width="1"/>
    <text x="60" y="16" text-anchor="middle" font-size="7.5" font-weight="700" fill="#92400e">Baileys Bridge</text>
    <text x="60" y="28" text-anchor="middle" font-size="6" fill="#b45309">TypeScript · WS · separate process</text>
  </g>

  <!-- External: Users -->
  <g transform="translate(28, 296)">
    <rect width="120" height="30" rx="6" fill="#f1f5f9" stroke="#cbd5e1" stroke-width="0.7"/>
    <text x="60" y="18" text-anchor="middle" font-size="8" font-weight="600" fill="#334155">Users / Groups</text>
  </g>

  <!-- ════════════════════════════════════════════════════════════ -->
  <!--  OVERSEER PROCESS                                           -->
  <!-- ════════════════════════════════════════════════════════════ -->

  <rect x="14" y="424" width="1172" height="240" rx="12" fill="none" stroke="#f59e0b" stroke-width="1.8" stroke-dasharray="8,4" opacity="0.6"/>
  <rect x="22" y="420" width="210" height="16" rx="4" fill="#f1f5f9"/>
  <text x="30" y="431" font-size="9" font-weight="700" fill="#d97706" letter-spacing="0.5">OVERSEER PROCESS (Python)</text>

  <!-- Unix Socket between processes -->
  <rect x="355" y="400" width="86" height="18" rx="5" fill="#fffbeb" stroke="#fcd34d" stroke-width="0.8"/>
  <text x="398" y="412" text-anchor="middle" font-size="7" font-weight="600" fill="#92400e">Unix socket</text>
  <line x1="398" y1="392" x2="398" y2="400" stroke="#f59e0b" stroke-width="1.5" marker-end="url(#arr-amber)"/>
  <line x1="398" y1="418" x2="398" y2="424" stroke="#f59e0b" stroke-width="1.5" marker-end="url(#arr-amber)"/>

  <!-- Runbooks -->
  <g transform="translate(28, 444)">
    <rect width="150" height="130" rx="8" fill="#ffffff" stroke="#f59e0b" stroke-width="1.2" filter="url(#sh)"/>
    <rect width="150" height="20" rx="8" fill="#d97706"/>
    <rect x="0" y="10" width="150" height="10" fill="#d97706"/>
    <text x="75" y="15" text-anchor="middle" font-size="8" font-weight="700" fill="#ffffff">RUNBOOKS</text>

    <text x="10" y="32" font-size="6.5" fill="#334155">Markdown + YAML frontmatter</text>
    <text x="10" y="44" font-size="6.5" fill="#64748b">12 starter runbooks</text>

    <rect x="6" y="50" width="34" height="12" rx="2" fill="#eff6ff"/>
    <text x="23" y="59" text-anchor="middle" font-size="5.5" fill="#1e40af">poll</text>
    <rect x="44" y="50" width="34" height="12" rx="2" fill="#eff6ff"/>
    <text x="61" y="59" text-anchor="middle" font-size="5.5" fill="#1e40af">cron</text>
    <rect x="82" y="50" width="38" height="12" rx="2" fill="#eff6ff"/>
    <text x="101" y="59" text-anchor="middle" font-size="5.5" fill="#1e40af">event</text>

    <rect x="6" y="68" width="42" height="12" rx="2" fill="#fef2f2"/>
    <text x="27" y="77" text-anchor="middle" font-size="5.5" fill="#dc2626">health</text>
    <rect x="52" y="68" width="28" height="12" rx="2" fill="#f0f9ff"/>
    <text x="66" y="77" text-anchor="middle" font-size="5.5" fill="#0369a1">ops</text>
    <rect x="84" y="68" width="42" height="12" rx="2" fill="#ecfdf5"/>
    <text x="105" y="77" text-anchor="middle" font-size="5.5" fill="#065f46">memory</text>
    <rect x="6" y="84" width="42" height="12" rx="2" fill="#faf5ff"/>
    <text x="27" y="93" text-anchor="middle" font-size="5.5" fill="#6d28d9">comms</text>
    <rect x="52" y="84" width="52" height="12" rx="2" fill="#fffbeb"/>
    <text x="78" y="93" text-anchor="middle" font-size="5.5" fill="#92400e">governance</text>
    <rect x="108" y="84" width="36" height="12" rx="2" fill="#f0fdf4"/>
    <text x="126" y="93" text-anchor="middle" font-size="5.5" fill="#166534">quality</text>

    <text x="75" y="112" text-anchor="middle" font-size="6" fill="#94a3b8">data/overseer/runbooks/</text>
    <text x="75" y="124" text-anchor="middle" font-size="6" fill="#94a3b8">process_alive · disk · age</text>
  </g>

  <!-- Tick + Safety -->
  <g transform="translate(192, 444)">
    <rect width="180" height="130" rx="8" fill="#ffffff" stroke="#ef4444" stroke-width="1.2" filter="url(#sh)"/>
    <rect width="180" height="20" rx="8" fill="#dc2626"/>
    <rect x="0" y="10" width="180" height="10" fill="#dc2626"/>
    <text x="90" y="15" text-anchor="middle" font-size="8" font-weight="700" fill="#ffffff">TICK LOOP + SAFETY</text>

    <text x="10" y="32" font-size="6.5" fill="#334155" font-weight="500">1-second tick evaluates all runbooks</text>

    <rect x="6" y="38" width="168" height="14" rx="3" fill="#fef2f2"/>
    <text x="90" y="48" text-anchor="middle" font-size="6" fill="#991b1b">Circuit Breaker — 3 strikes → quarantine</text>
    <rect x="6" y="56" width="168" height="14" rx="3" fill="#fef2f2"/>
    <text x="90" y="66" text-anchor="middle" font-size="6" fill="#991b1b">Rate Limiter — 30 act/hr · 20 LLM/day</text>
    <rect x="6" y="74" width="168" height="14" rx="3" fill="#fef2f2"/>
    <text x="90" y="84" text-anchor="middle" font-size="6" fill="#991b1b">Budget — 500K tokens/day · health priority</text>
    <rect x="6" y="92" width="80" height="14" rx="3" fill="#fef2f2"/>
    <text x="46" y="102" text-anchor="middle" font-size="6" fill="#991b1b">Cooldown</text>
    <rect x="90" y="92" width="84" height="14" rx="3" fill="#fef2f2"/>
    <text x="132" y="102" text-anchor="middle" font-size="6" fill="#991b1b">Lock Manager</text>

    <rect x="6" y="110" width="168" height="14" rx="3" fill="#fff7ed"/>
    <text x="90" y="120" text-anchor="middle" font-size="6" fill="#9a3412">requires_tests → worktree → merge-on-pass</text>
  </g>

  <!-- Agent Loop -->
  <g transform="translate(386, 444)">
    <rect width="170" height="130" rx="8" fill="#ffffff" stroke="#3b82f6" stroke-width="1.2" filter="url(#sh)"/>
    <rect width="170" height="20" rx="8" fill="#2563eb"/>
    <rect x="0" y="10" width="170" height="10" fill="#2563eb"/>
    <text x="85" y="15" text-anchor="middle" font-size="8" font-weight="700" fill="#ffffff">AGENT LOOP</text>

    <text x="10" y="32" font-size="6.5" fill="#334155" font-weight="500">Anthropic tool-use API</text>
    <text x="10" y="44" font-size="6.5" fill="#64748b">Profile: overseerDefault</text>
    <text x="10" y="56" font-size="6.5" fill="#64748b">(Claude Haiku 4.5)</text>

    <rect x="6" y="62" width="158" height="12" rx="2" fill="#eff6ff"/>
    <text x="85" y="71" text-anchor="middle" font-size="5.5" fill="#1e40af">1. Check budget</text>
    <rect x="6" y="78" width="158" height="12" rx="2" fill="#eff6ff"/>
    <text x="85" y="87" text-anchor="middle" font-size="5.5" fill="#1e40af">2. Build context (runbook + obs)</text>
    <rect x="6" y="94" width="158" height="12" rx="2" fill="#eff6ff"/>
    <text x="85" y="103" text-anchor="middle" font-size="5.5" fill="#1e40af">3. Tool dispatch loop</text>
    <rect x="6" y="110" width="158" height="12" rx="2" fill="#eff6ff"/>
    <text x="85" y="119" text-anchor="middle" font-size="5.5" fill="#1e40af">4. Return AgentResult</text>
  </g>

  <!-- Tools -->
  <g transform="translate(570, 444)">
    <rect width="220" height="130" rx="8" fill="#ffffff" stroke="#10b981" stroke-width="1.2" filter="url(#sh)"/>
    <rect width="220" height="20" rx="8" fill="#059669"/>
    <rect x="0" y="10" width="220" height="10" fill="#059669"/>
    <text x="110" y="15" text-anchor="middle" font-size="8" font-weight="700" fill="#ffffff">TOOLS (13)</text>

    <text x="10" y="32" font-size="6.5" fill="#065f46" font-weight="600">Read-only (6)</text>
    <rect x="6" y="36" width="64" height="12" rx="2" fill="#ecfdf5"/>
    <text x="38" y="45" text-anchor="middle" font-size="5.5" fill="#065f46">read_file</text>
    <rect x="74" y="36" width="64" height="12" rx="2" fill="#ecfdf5"/>
    <text x="106" y="45" text-anchor="middle" font-size="5.5" fill="#065f46">query_db</text>
    <rect x="142" y="36" width="70" height="12" rx="2" fill="#ecfdf5"/>
    <text x="177" y="45" text-anchor="middle" font-size="5.5" fill="#065f46">query_memory</text>
    <rect x="6" y="52" width="64" height="12" rx="2" fill="#ecfdf5"/>
    <text x="38" y="61" text-anchor="middle" font-size="5.5" fill="#065f46">check_health</text>
    <rect x="74" y="52" width="64" height="12" rx="2" fill="#ecfdf5"/>
    <text x="106" y="61" text-anchor="middle" font-size="5.5" fill="#065f46">git_log</text>
    <rect x="142" y="52" width="70" height="12" rx="2" fill="#ecfdf5"/>
    <text x="177" y="61" text-anchor="middle" font-size="5.5" fill="#065f46">send_alert</text>

    <text x="10" y="78" font-size="6.5" fill="#9a3412" font-weight="600">Write + Compute (7)</text>
    <rect x="6" y="82" width="64" height="12" rx="2" fill="#fff7ed"/>
    <text x="38" y="91" text-anchor="middle" font-size="5.5" fill="#9a3412">write_file</text>
    <rect x="74" y="82" width="64" height="12" rx="2" fill="#fff7ed"/>
    <text x="106" y="91" text-anchor="middle" font-size="5.5" fill="#9a3412">edit_file</text>
    <rect x="142" y="82" width="70" height="12" rx="2" fill="#fff7ed"/>
    <text x="177" y="91" text-anchor="middle" font-size="5.5" fill="#9a3412">prune_memory</text>
    <rect x="6" y="98" width="64" height="12" rx="2" fill="#fff7ed"/>
    <text x="38" y="107" text-anchor="middle" font-size="5.5" fill="#9a3412">run_tests</text>
    <rect x="74" y="98" width="64" height="12" rx="2" fill="#fff7ed"/>
    <text x="106" y="107" text-anchor="middle" font-size="5.5" fill="#9a3412">git_revert</text>
    <rect x="142" y="98" width="70" height="12" rx="2" fill="#fff7ed"/>
    <text x="177" y="107" text-anchor="middle" font-size="5.5" fill="#9a3412">dry_run_runbook</text>
    <rect x="6" y="114" width="64" height="12" rx="2" fill="#fff7ed"/>
    <text x="38" y="123" text-anchor="middle" font-size="5.5" fill="#9a3412">shell</text>
  </g>

  <!-- Sandbox + Comms + Audit -->
  <g transform="translate(804, 444)">
    <rect width="168" height="130" rx="8" fill="#ffffff" stroke="#64748b" stroke-width="1" filter="url(#sh)"/>
    <text x="84" y="16" text-anchor="middle" font-size="8" font-weight="700" fill="#0f172a">INFRASTRUCTURE</text>

    <rect x="6" y="24" width="156" height="28" rx="4" fill="#fef3c7" stroke="#f59e0b" stroke-width="0.6"/>
    <text x="84" y="36" text-anchor="middle" font-size="6.5" fill="#92400e" font-weight="600">Bubblewrap Sandbox</text>
    <text x="84" y="48" text-anchor="middle" font-size="5.5" fill="#92400e">no-net · /tmp iso · mask secrets</text>

    <rect x="6" y="58" width="156" height="22" rx="4" fill="#faf5ff" stroke="#c4b5fd" stroke-width="0.6"/>
    <text x="84" y="72" text-anchor="middle" font-size="6.5" fill="#7c3aed" font-weight="600">Cascading Comms</text>

    <rect x="6" y="84" width="156" height="22" rx="4" fill="#f8fafc" stroke="#e2e8f0" stroke-width="0.6"/>
    <text x="84" y="98" text-anchor="middle" font-size="6.5" fill="#334155" font-weight="600">Audit Logger (JSONL)</text>

    <rect x="6" y="110" width="156" height="14" rx="4" fill="#f8fafc" stroke="#e2e8f0" stroke-width="0.6"/>
    <text x="84" y="120" text-anchor="middle" font-size="6" fill="#334155">Internal Git · Tombstones</text>
  </g>

  <!-- Overseer flow arrows -->
  <line x1="178" y1="510" x2="190" y2="510" stroke="#f59e0b" stroke-width="1.5" marker-end="url(#arr-amber)"/>
  <line x1="372" y1="510" x2="384" y2="510" stroke="#3b82f6" stroke-width="1.5" marker-end="url(#arr-blue)"/>
  <line x1="556" y1="510" x2="568" y2="510" stroke="#10b981" stroke-width="1.5" marker-end="url(#arr-green)"/>
  <line x1="790" y1="510" x2="802" y2="510" stroke="#94a3b8" stroke-width="1" marker-end="url(#arr)"/>

  <!-- Overseer → Anthropic API (providers) -->
  <path d="M 556 444 L 556 440 L 712 440 L 712 332" stroke="#94a3b8" stroke-width="1" stroke-dasharray="3,2" fill="none" marker-end="url(#arr)"/>
  <text x="640" y="436" font-size="6" fill="#94a3b8">Anthropic API</text>

  <!-- Comms → External (Telegram/SMTP) -->
  <path d="M 804 510 L 990 510 L 990 414 L 990 166 Q 990 160 984 160 L 148 160" stroke="#94a3b8" stroke-width="0.8" stroke-dasharray="3,2" fill="none" marker-end="url(#arr)"/>
  <text x="998" y="300" font-size="6" fill="#94a3b8" transform="rotate(-90, 998, 300)">alerts → Telegram/SMTP</text>

  <!-- Systemd unit label -->
  <g transform="translate(986, 444)">
    <rect width="186" height="50" rx="8" fill="#ffffff" stroke="#475569" stroke-width="0.8" filter="url(#sh)"/>
    <text x="93" y="16" text-anchor="middle" font-size="7" font-weight="700" fill="#0f172a">SYSTEMD UNITS</text>
    <text x="10" y="30" font-size="6" fill="#64748b">yeoman-overseer.service</text>
    <text x="10" y="42" font-size="6" fill="#64748b">yeoman-overseer-alert.service</text>
  </g>
  <g transform="translate(986, 504)">
    <rect width="186" height="36" rx="8" fill="#ffffff" stroke="#475569" stroke-width="0.8" filter="url(#sh)"/>
    <text x="10" y="14" font-size="6" fill="#64748b">yeoman-gateway.service</text>
    <text x="10" y="26" font-size="6" fill="#64748b">yeoman-bridge.service</text>
  </g>

  <!-- ════════════════════════════════════════════════════════════ -->
  <!--  SHARED STATE                                               -->
  <!-- ════════════════════════════════════════════════════════════ -->

  <g transform="translate(24, 686)">
    <rect width="1148" height="76" rx="10" fill="#ffffff" stroke="#64748b" stroke-width="1" filter="url(#sh)"/>
    <text x="574" y="16" text-anchor="middle" font-size="9" font-weight="700" fill="#0f172a">SHARED STATE <tspan font-weight="400" fill="#94a3b8" font-size="8">~/.yeoman/ — both processes read/write</tspan></text>

    <rect x="8" y="26" width="76" height="20" rx="4" fill="#f8fafc" stroke="#e2e8f0" stroke-width="0.5"/>
    <text x="46" y="39" text-anchor="middle" font-size="6.5" fill="#334155" font-weight="600">config.json</text>
    <rect x="88" y="26" width="70" height="20" rx="4" fill="#faf5ff" stroke="#c4b5fd" stroke-width="0.5"/>
    <text x="123" y="39" text-anchor="middle" font-size="6.5" fill="#5b21b6" font-weight="600">policy.json</text>
    <rect x="162" y="26" width="46" height="20" rx="4" fill="#f8fafc" stroke="#e2e8f0" stroke-width="0.5"/>
    <text x="185" y="39" text-anchor="middle" font-size="6.5" fill="#334155" font-weight="600">.env</text>
    <rect x="212" y="26" width="76" height="20" rx="4" fill="#ecfdf5" stroke="#6ee7b7" stroke-width="0.5"/>
    <text x="250" y="39" text-anchor="middle" font-size="6.5" fill="#065f46" font-weight="600">memory.db</text>
    <rect x="292" y="26" width="70" height="20" rx="4" fill="#f8fafc" stroke="#e2e8f0" stroke-width="0.5"/>
    <text x="327" y="39" text-anchor="middle" font-size="6.5" fill="#334155" font-weight="600">sessions/</text>
    <rect x="366" y="26" width="76" height="20" rx="4" fill="#f8fafc" stroke="#e2e8f0" stroke-width="0.5"/>
    <text x="404" y="39" text-anchor="middle" font-size="6.5" fill="#334155" font-weight="600">workspace/</text>
    <rect x="446" y="26" width="80" height="20" rx="4" fill="#fffbeb" stroke="#fcd34d" stroke-width="0.5"/>
    <text x="486" y="39" text-anchor="middle" font-size="6.5" fill="#92400e" font-weight="600">cron/jobs.json</text>
    <rect x="530" y="26" width="76" height="20" rx="4" fill="#f8fafc" stroke="#e2e8f0" stroke-width="0.5"/>
    <text x="568" y="39" text-anchor="middle" font-size="6.5" fill="#334155" font-weight="600">archive.db</text>

    <!-- Overseer-specific state -->
    <rect x="620" y="26" width="100" height="20" rx="4" fill="#fffbeb" stroke="#f59e0b" stroke-width="0.5"/>
    <text x="670" y="39" text-anchor="middle" font-size="6.5" fill="#92400e" font-weight="600">overseer/state.json</text>
    <rect x="724" y="26" width="100" height="20" rx="4" fill="#fffbeb" stroke="#f59e0b" stroke-width="0.5"/>
    <text x="774" y="39" text-anchor="middle" font-size="6.5" fill="#92400e" font-weight="600">overseer/runbooks/</text>
    <rect x="828" y="26" width="100" height="20" rx="4" fill="#fffbeb" stroke="#f59e0b" stroke-width="0.5"/>
    <text x="878" y="39" text-anchor="middle" font-size="6.5" fill="#92400e" font-weight="600">overseer/audit/</text>
    <rect x="932" y="26" width="80" height="20" rx="4" fill="#f8fafc" stroke="#e2e8f0" stroke-width="0.5"/>
    <text x="972" y="39" text-anchor="middle" font-size="6.5" fill="#334155" font-weight="600">var/logs/</text>
    <rect x="1016" y="26" width="80" height="20" rx="4" fill="#f8fafc" stroke="#e2e8f0" stroke-width="0.5"/>
    <text x="1056" y="39" text-anchor="middle" font-size="6.5" fill="#334155" font-weight="600">secrets/</text>

    <text x="574" y="64" text-anchor="middle" font-size="6.5" fill="#94a3b8">var/logs/ contains gateway.log · whatsapp-bridge.log · overseer.log — all visible via yeoman logs</text>
  </g>

  <!-- ════════════════════════════════════════════════════════════ -->
  <!--  LEGEND                                                     -->
  <!-- ════════════════════════════════════════════════════════════ -->

  <g transform="translate(24, 778)">
    <rect width="1148" height="30" rx="6" fill="#0f172a" opacity="0.04"/>

    <line x1="16" y1="16" x2="40" y2="16" stroke="#3b82f6" stroke-width="2"/>
    <text x="46" y="20" font-size="7" fill="#475569">Inbound</text>
    <line x1="96" y1="16" x2="120" y2="16" stroke="#10b981" stroke-width="2"/>
    <text x="126" y="20" font-size="7" fill="#475569">Outbound</text>
    <line x1="186" y1="16" x2="210" y2="16" stroke="#f59e0b" stroke-width="2"/>
    <text x="216" y="20" font-size="7" fill="#475569">Overseer</text>
    <line x1="276" y1="16" x2="300" y2="16" stroke="#94a3b8" stroke-width="1" stroke-dasharray="3,2"/>
    <text x="306" y="20" font-size="7" fill="#475569">Port / API call</text>

    <rect x="396" y="8" width="44" height="14" rx="4" fill="none" stroke="#3b82f6" stroke-width="1.5" stroke-dasharray="6,3"/>
    <text x="448" y="20" font-size="7" fill="#475569">Process boundary</text>

    <text x="540" y="20" font-size="7" fill="#0f172a" font-weight="600">v4:</text>
    <text x="558" y="20" font-size="7" fill="#64748b">Two-process design — gateway handles chat, overseer handles autonomous maintenance</text>
  </g>

</svg>
